<?xml version="1.0" ?><svg height="400px" version="1.1" viewBox="0 0 400 400" width="400px" xmlns="http://www.w3.org/2000/svg" xmlns:xlink="http://www.w3.org/1999/xlink"><title/><desc/><defs><path d="M219.088524,205.365701 C265.18668,216.948701 300,269.689144 300,333 L100,333 C100,269.689144 134.81332,216.948701 180.911476,205.365701 C151.529273,197.056483 130,170.042457 130,138 C130,99.3400675 161.340068,68 200,68 C238.659932,68 270,99.3400675 270,138 C270,170.042457 248.470727,197.056483 219.08855,205.365708 L219.088524,205.365701 Z" id="path-1"/><filter filterUnits="objectBoundingBox" height="200%" id="filter-2" width="200%" x="-50%" y="-50%"><feOffset dx="0" dy="4" in="SourceAlpha" result="shadowOffsetOuter1"/><feGaussianBlur in="shadowOffsetOuter1" result="shadowBlurOuter1" stdDeviation="2"/><feColorMatrix in="shadowBlurOuter1" type="matrix" values="0 0 0 0 0   0 0 0 0 0   0 0 0 0 0  0 0 0 0.5 0"/></filter></defs><g fill="none" fill-rule="evenodd" id="Page-1" stroke="none" stroke-width="1"><g id="human"><path d="M200,400 C310.45695,400 400,310.45695 400,200 C400,89.54305 310.45695,0 200,0 C89.54305,0 0,89.54305 0,200 C0,310.45695 89.54305,400 200,400 Z" fill="#AAD8B0" id="Background-Copy-2"/><g id="Oval-159"><use fill="black" fill-opacity="1" filter="url(#filter-2)" xlink:href="#path-1"/><use fill="#DCF0E6" fill-rule="evenodd" xlink:href="#path-1"/></g></g></g></svg>